<mxfile host="Electron" modified="2023-11-12T08:55:16.449Z" agent="Mozilla/5.0 (Windows NT 10.0; Win64; x64) AppleWebKit/537.36 (KHTML, like Gecko) draw.io/21.5.1 Chrome/112.0.5615.204 Electron/24.6.0 Safari/537.36" etag="jvjAWVk7vtttzWXl74LP" version="21.5.1" type="device" pages="4">
  <diagram name="并发标记开始" id="JpfGlJIJfslf6D6MS7ZY">
    <mxGraphModel dx="1050" dy="621" grid="1" gridSize="10" guides="1" tooltips="1" connect="1" arrows="1" fold="1" page="1" pageScale="1" pageWidth="827" pageHeight="1169" math="0" shadow="0">
      <root>
        <mxCell id="0" />
        <mxCell id="1" parent="0" />
        <mxCell id="PM5UFh9LLb4f-8IYbUsk-1" value="" style="rounded=0;whiteSpace=wrap;html=1;fillColor=#CCCCCC;fontColor=#333333;strokeColor=#666666;" vertex="1" parent="1">
          <mxGeometry x="140" y="370" width="120" height="60" as="geometry" />
        </mxCell>
        <mxCell id="PM5UFh9LLb4f-8IYbUsk-2" value="" style="rounded=0;whiteSpace=wrap;html=1;" vertex="1" parent="1">
          <mxGeometry x="260" y="370" width="270" height="60" as="geometry" />
        </mxCell>
        <mxCell id="PM5UFh9LLb4f-8IYbUsk-3" value="Region" style="text;html=1;strokeColor=none;fillColor=none;align=center;verticalAlign=middle;whiteSpace=wrap;rounded=0;" vertex="1" parent="1">
          <mxGeometry x="70" y="385" width="60" height="30" as="geometry" />
        </mxCell>
        <mxCell id="PM5UFh9LLb4f-8IYbUsk-4" value="" style="endArrow=classic;html=1;rounded=0;" edge="1" parent="1">
          <mxGeometry width="50" height="50" relative="1" as="geometry">
            <mxPoint x="140" y="500" as="sourcePoint" />
            <mxPoint x="140" y="450" as="targetPoint" />
          </mxGeometry>
        </mxCell>
        <mxCell id="PM5UFh9LLb4f-8IYbUsk-5" value="bottom" style="text;html=1;strokeColor=none;fillColor=none;align=center;verticalAlign=middle;whiteSpace=wrap;rounded=0;" vertex="1" parent="1">
          <mxGeometry x="110" y="500" width="60" height="30" as="geometry" />
        </mxCell>
        <mxCell id="PM5UFh9LLb4f-8IYbUsk-6" value="" style="endArrow=classic;html=1;rounded=0;" edge="1" parent="1">
          <mxGeometry width="50" height="50" relative="1" as="geometry">
            <mxPoint x="260" y="500" as="sourcePoint" />
            <mxPoint x="260" y="450" as="targetPoint" />
          </mxGeometry>
        </mxCell>
        <mxCell id="PM5UFh9LLb4f-8IYbUsk-7" value="top" style="text;html=1;strokeColor=none;fillColor=none;align=center;verticalAlign=middle;whiteSpace=wrap;rounded=0;" vertex="1" parent="1">
          <mxGeometry x="230" y="500" width="60" height="30" as="geometry" />
        </mxCell>
        <mxCell id="PM5UFh9LLb4f-8IYbUsk-8" value="" style="endArrow=classic;html=1;rounded=0;" edge="1" parent="1">
          <mxGeometry width="50" height="50" relative="1" as="geometry">
            <mxPoint x="140" y="310" as="sourcePoint" />
            <mxPoint x="140" y="360" as="targetPoint" />
          </mxGeometry>
        </mxCell>
        <mxCell id="PM5UFh9LLb4f-8IYbUsk-9" value="prev" style="text;html=1;strokeColor=none;fillColor=none;align=center;verticalAlign=middle;whiteSpace=wrap;rounded=0;" vertex="1" parent="1">
          <mxGeometry x="110" y="280" width="60" height="30" as="geometry" />
        </mxCell>
        <mxCell id="PM5UFh9LLb4f-8IYbUsk-10" value="" style="endArrow=classic;html=1;rounded=0;" edge="1" parent="1">
          <mxGeometry width="50" height="50" relative="1" as="geometry">
            <mxPoint x="260" y="310" as="sourcePoint" />
            <mxPoint x="260" y="360" as="targetPoint" />
          </mxGeometry>
        </mxCell>
        <mxCell id="PM5UFh9LLb4f-8IYbUsk-11" value="next" style="text;html=1;strokeColor=none;fillColor=none;align=center;verticalAlign=middle;whiteSpace=wrap;rounded=0;" vertex="1" parent="1">
          <mxGeometry x="230" y="280" width="60" height="30" as="geometry" />
        </mxCell>
        <mxCell id="PM5UFh9LLb4f-8IYbUsk-12" value="" style="rounded=0;whiteSpace=wrap;html=1;" vertex="1" parent="1">
          <mxGeometry x="140" y="160" width="30" height="60" as="geometry" />
        </mxCell>
        <mxCell id="PM5UFh9LLb4f-8IYbUsk-13" value="NextBitMap" style="text;html=1;strokeColor=none;fillColor=none;align=center;verticalAlign=middle;whiteSpace=wrap;rounded=0;" vertex="1" parent="1">
          <mxGeometry x="60" y="175" width="80" height="30" as="geometry" />
        </mxCell>
        <mxCell id="PM5UFh9LLb4f-8IYbUsk-14" value="" style="rounded=0;whiteSpace=wrap;html=1;" vertex="1" parent="1">
          <mxGeometry x="170" y="160" width="30" height="60" as="geometry" />
        </mxCell>
        <mxCell id="PM5UFh9LLb4f-8IYbUsk-15" value="" style="rounded=0;whiteSpace=wrap;html=1;" vertex="1" parent="1">
          <mxGeometry x="200" y="160" width="30" height="60" as="geometry" />
        </mxCell>
        <mxCell id="PM5UFh9LLb4f-8IYbUsk-16" value="" style="rounded=0;whiteSpace=wrap;html=1;" vertex="1" parent="1">
          <mxGeometry x="230" y="160" width="30" height="60" as="geometry" />
        </mxCell>
      </root>
    </mxGraphModel>
  </diagram>
  <diagram id="HoQu5tXQYvDfoCGdu85u" name="并发标记结束">
    <mxGraphModel dx="875" dy="518" grid="1" gridSize="10" guides="1" tooltips="1" connect="1" arrows="1" fold="1" page="1" pageScale="1" pageWidth="827" pageHeight="1169" math="0" shadow="0">
      <root>
        <mxCell id="0" />
        <mxCell id="1" parent="0" />
        <mxCell id="_k2X7MY3Oiyg4Tkj4P_e-1" value="" style="rounded=0;whiteSpace=wrap;html=1;fillColor=#CCCCCC;fontColor=#333333;strokeColor=#666666;" vertex="1" parent="1">
          <mxGeometry x="140" y="370" width="120" height="60" as="geometry" />
        </mxCell>
        <mxCell id="_k2X7MY3Oiyg4Tkj4P_e-2" value="" style="rounded=0;whiteSpace=wrap;html=1;" vertex="1" parent="1">
          <mxGeometry x="260" y="370" width="270" height="60" as="geometry" />
        </mxCell>
        <mxCell id="_k2X7MY3Oiyg4Tkj4P_e-3" value="Region" style="text;html=1;strokeColor=none;fillColor=none;align=center;verticalAlign=middle;whiteSpace=wrap;rounded=0;" vertex="1" parent="1">
          <mxGeometry x="70" y="385" width="60" height="30" as="geometry" />
        </mxCell>
        <mxCell id="_k2X7MY3Oiyg4Tkj4P_e-4" value="" style="endArrow=classic;html=1;rounded=0;" edge="1" parent="1">
          <mxGeometry width="50" height="50" relative="1" as="geometry">
            <mxPoint x="140" y="500" as="sourcePoint" />
            <mxPoint x="140" y="450" as="targetPoint" />
          </mxGeometry>
        </mxCell>
        <mxCell id="_k2X7MY3Oiyg4Tkj4P_e-5" value="bottom" style="text;html=1;strokeColor=none;fillColor=none;align=center;verticalAlign=middle;whiteSpace=wrap;rounded=0;" vertex="1" parent="1">
          <mxGeometry x="110" y="500" width="60" height="30" as="geometry" />
        </mxCell>
        <mxCell id="_k2X7MY3Oiyg4Tkj4P_e-6" value="" style="endArrow=classic;html=1;rounded=0;" edge="1" parent="1">
          <mxGeometry width="50" height="50" relative="1" as="geometry">
            <mxPoint x="380" y="500" as="sourcePoint" />
            <mxPoint x="380" y="450" as="targetPoint" />
          </mxGeometry>
        </mxCell>
        <mxCell id="_k2X7MY3Oiyg4Tkj4P_e-7" value="top" style="text;html=1;strokeColor=none;fillColor=none;align=center;verticalAlign=middle;whiteSpace=wrap;rounded=0;" vertex="1" parent="1">
          <mxGeometry x="350" y="500" width="60" height="30" as="geometry" />
        </mxCell>
        <mxCell id="_k2X7MY3Oiyg4Tkj4P_e-8" value="" style="endArrow=classic;html=1;rounded=0;" edge="1" parent="1">
          <mxGeometry width="50" height="50" relative="1" as="geometry">
            <mxPoint x="140" y="310" as="sourcePoint" />
            <mxPoint x="140" y="360" as="targetPoint" />
          </mxGeometry>
        </mxCell>
        <mxCell id="_k2X7MY3Oiyg4Tkj4P_e-9" value="prev" style="text;html=1;strokeColor=none;fillColor=none;align=center;verticalAlign=middle;whiteSpace=wrap;rounded=0;" vertex="1" parent="1">
          <mxGeometry x="110" y="280" width="60" height="30" as="geometry" />
        </mxCell>
        <mxCell id="_k2X7MY3Oiyg4Tkj4P_e-10" value="" style="endArrow=classic;html=1;rounded=0;" edge="1" parent="1">
          <mxGeometry width="50" height="50" relative="1" as="geometry">
            <mxPoint x="260" y="310" as="sourcePoint" />
            <mxPoint x="260" y="360" as="targetPoint" />
          </mxGeometry>
        </mxCell>
        <mxCell id="_k2X7MY3Oiyg4Tkj4P_e-11" value="next" style="text;html=1;strokeColor=none;fillColor=none;align=center;verticalAlign=middle;whiteSpace=wrap;rounded=0;" vertex="1" parent="1">
          <mxGeometry x="230" y="280" width="60" height="30" as="geometry" />
        </mxCell>
        <mxCell id="_k2X7MY3Oiyg4Tkj4P_e-12" value="" style="rounded=0;whiteSpace=wrap;html=1;" vertex="1" parent="1">
          <mxGeometry x="140" y="160" width="30" height="60" as="geometry" />
        </mxCell>
        <mxCell id="_k2X7MY3Oiyg4Tkj4P_e-13" value="NextBitMap" style="text;html=1;strokeColor=none;fillColor=none;align=center;verticalAlign=middle;whiteSpace=wrap;rounded=0;" vertex="1" parent="1">
          <mxGeometry x="60" y="175" width="80" height="30" as="geometry" />
        </mxCell>
        <mxCell id="_k2X7MY3Oiyg4Tkj4P_e-14" value="" style="rounded=0;whiteSpace=wrap;html=1;fillColor=#000000;" vertex="1" parent="1">
          <mxGeometry x="170" y="160" width="30" height="60" as="geometry" />
        </mxCell>
        <mxCell id="_k2X7MY3Oiyg4Tkj4P_e-15" value="" style="rounded=0;whiteSpace=wrap;html=1;" vertex="1" parent="1">
          <mxGeometry x="200" y="160" width="30" height="60" as="geometry" />
        </mxCell>
        <mxCell id="_k2X7MY3Oiyg4Tkj4P_e-16" value="" style="rounded=0;whiteSpace=wrap;html=1;fillColor=#000000;" vertex="1" parent="1">
          <mxGeometry x="230" y="160" width="30" height="60" as="geometry" />
        </mxCell>
        <mxCell id="_k2X7MY3Oiyg4Tkj4P_e-17" value="" style="rounded=0;whiteSpace=wrap;html=1;fillColor=#CCCCCC;fontColor=#333333;strokeColor=#666666;" vertex="1" parent="1">
          <mxGeometry x="260" y="370" width="120" height="60" as="geometry" />
        </mxCell>
      </root>
    </mxGraphModel>
  </diagram>
  <diagram id="bIkh_bGxXoURaf2s68X0" name="并发标记2开始">
    <mxGraphModel dx="724" dy="428" grid="1" gridSize="10" guides="1" tooltips="1" connect="1" arrows="1" fold="1" page="1" pageScale="1" pageWidth="827" pageHeight="1169" math="0" shadow="0">
      <root>
        <mxCell id="0" />
        <mxCell id="1" parent="0" />
        <mxCell id="TdpDD-ACC1R9U4utzm28-1" value="" style="rounded=0;whiteSpace=wrap;html=1;fillColor=#CCCCCC;fontColor=#333333;strokeColor=#666666;" vertex="1" parent="1">
          <mxGeometry x="140" y="370" width="120" height="60" as="geometry" />
        </mxCell>
        <mxCell id="TdpDD-ACC1R9U4utzm28-2" value="" style="rounded=0;whiteSpace=wrap;html=1;" vertex="1" parent="1">
          <mxGeometry x="260" y="370" width="270" height="60" as="geometry" />
        </mxCell>
        <mxCell id="TdpDD-ACC1R9U4utzm28-3" value="Region" style="text;html=1;strokeColor=none;fillColor=none;align=center;verticalAlign=middle;whiteSpace=wrap;rounded=0;" vertex="1" parent="1">
          <mxGeometry x="70" y="385" width="60" height="30" as="geometry" />
        </mxCell>
        <mxCell id="TdpDD-ACC1R9U4utzm28-4" value="" style="endArrow=classic;html=1;rounded=0;" edge="1" parent="1">
          <mxGeometry width="50" height="50" relative="1" as="geometry">
            <mxPoint x="140" y="500" as="sourcePoint" />
            <mxPoint x="140" y="450" as="targetPoint" />
          </mxGeometry>
        </mxCell>
        <mxCell id="TdpDD-ACC1R9U4utzm28-5" value="bottom" style="text;html=1;strokeColor=none;fillColor=none;align=center;verticalAlign=middle;whiteSpace=wrap;rounded=0;" vertex="1" parent="1">
          <mxGeometry x="110" y="500" width="60" height="30" as="geometry" />
        </mxCell>
        <mxCell id="TdpDD-ACC1R9U4utzm28-6" value="" style="endArrow=classic;html=1;rounded=0;" edge="1" parent="1">
          <mxGeometry width="50" height="50" relative="1" as="geometry">
            <mxPoint x="380" y="500" as="sourcePoint" />
            <mxPoint x="380" y="450" as="targetPoint" />
          </mxGeometry>
        </mxCell>
        <mxCell id="TdpDD-ACC1R9U4utzm28-7" value="top" style="text;html=1;strokeColor=none;fillColor=none;align=center;verticalAlign=middle;whiteSpace=wrap;rounded=0;" vertex="1" parent="1">
          <mxGeometry x="350" y="500" width="60" height="30" as="geometry" />
        </mxCell>
        <mxCell id="TdpDD-ACC1R9U4utzm28-8" value="" style="endArrow=classic;html=1;rounded=0;" edge="1" parent="1">
          <mxGeometry width="50" height="50" relative="1" as="geometry">
            <mxPoint x="260" y="310" as="sourcePoint" />
            <mxPoint x="260" y="360" as="targetPoint" />
          </mxGeometry>
        </mxCell>
        <mxCell id="TdpDD-ACC1R9U4utzm28-9" value="prev" style="text;html=1;strokeColor=none;fillColor=none;align=center;verticalAlign=middle;whiteSpace=wrap;rounded=0;" vertex="1" parent="1">
          <mxGeometry x="230" y="280" width="60" height="30" as="geometry" />
        </mxCell>
        <mxCell id="TdpDD-ACC1R9U4utzm28-10" value="" style="endArrow=classic;html=1;rounded=0;" edge="1" parent="1">
          <mxGeometry width="50" height="50" relative="1" as="geometry">
            <mxPoint x="380" y="310" as="sourcePoint" />
            <mxPoint x="380" y="360" as="targetPoint" />
          </mxGeometry>
        </mxCell>
        <mxCell id="TdpDD-ACC1R9U4utzm28-11" value="next" style="text;html=1;strokeColor=none;fillColor=none;align=center;verticalAlign=middle;whiteSpace=wrap;rounded=0;" vertex="1" parent="1">
          <mxGeometry x="350" y="280" width="60" height="30" as="geometry" />
        </mxCell>
        <mxCell id="TdpDD-ACC1R9U4utzm28-12" value="" style="rounded=0;whiteSpace=wrap;html=1;" vertex="1" parent="1">
          <mxGeometry x="140" y="160" width="30" height="60" as="geometry" />
        </mxCell>
        <mxCell id="TdpDD-ACC1R9U4utzm28-13" value="PrevBitMap" style="text;html=1;strokeColor=none;fillColor=none;align=center;verticalAlign=middle;whiteSpace=wrap;rounded=0;" vertex="1" parent="1">
          <mxGeometry x="60" y="175" width="80" height="30" as="geometry" />
        </mxCell>
        <mxCell id="TdpDD-ACC1R9U4utzm28-14" value="" style="rounded=0;whiteSpace=wrap;html=1;fillColor=#000000;" vertex="1" parent="1">
          <mxGeometry x="170" y="160" width="30" height="60" as="geometry" />
        </mxCell>
        <mxCell id="TdpDD-ACC1R9U4utzm28-15" value="" style="rounded=0;whiteSpace=wrap;html=1;" vertex="1" parent="1">
          <mxGeometry x="200" y="160" width="30" height="60" as="geometry" />
        </mxCell>
        <mxCell id="TdpDD-ACC1R9U4utzm28-16" value="" style="rounded=0;whiteSpace=wrap;html=1;fillColor=#000000;" vertex="1" parent="1">
          <mxGeometry x="230" y="160" width="30" height="60" as="geometry" />
        </mxCell>
        <mxCell id="TdpDD-ACC1R9U4utzm28-17" value="" style="rounded=0;whiteSpace=wrap;html=1;fillColor=#CCCCCC;fontColor=#333333;strokeColor=#666666;" vertex="1" parent="1">
          <mxGeometry x="260" y="370" width="120" height="60" as="geometry" />
        </mxCell>
        <mxCell id="TdpDD-ACC1R9U4utzm28-18" value="" style="rounded=0;whiteSpace=wrap;html=1;" vertex="1" parent="1">
          <mxGeometry x="140" y="60" width="30" height="60" as="geometry" />
        </mxCell>
        <mxCell id="TdpDD-ACC1R9U4utzm28-19" value="NextBitMap" style="text;html=1;strokeColor=none;fillColor=none;align=center;verticalAlign=middle;whiteSpace=wrap;rounded=0;" vertex="1" parent="1">
          <mxGeometry x="60" y="75" width="80" height="30" as="geometry" />
        </mxCell>
        <mxCell id="TdpDD-ACC1R9U4utzm28-20" value="" style="rounded=0;whiteSpace=wrap;html=1;fillColor=#FFFFFF;" vertex="1" parent="1">
          <mxGeometry x="170" y="60" width="30" height="60" as="geometry" />
        </mxCell>
        <mxCell id="TdpDD-ACC1R9U4utzm28-21" value="" style="rounded=0;whiteSpace=wrap;html=1;" vertex="1" parent="1">
          <mxGeometry x="200" y="60" width="30" height="60" as="geometry" />
        </mxCell>
        <mxCell id="TdpDD-ACC1R9U4utzm28-22" value="" style="rounded=0;whiteSpace=wrap;html=1;fillColor=#FFFFFF;" vertex="1" parent="1">
          <mxGeometry x="230" y="60" width="30" height="60" as="geometry" />
        </mxCell>
        <mxCell id="TdpDD-ACC1R9U4utzm28-23" value="" style="rounded=0;whiteSpace=wrap;html=1;" vertex="1" parent="1">
          <mxGeometry x="260" y="60" width="30" height="60" as="geometry" />
        </mxCell>
        <mxCell id="TdpDD-ACC1R9U4utzm28-24" value="" style="rounded=0;whiteSpace=wrap;html=1;fillColor=#FFFFFF;" vertex="1" parent="1">
          <mxGeometry x="290" y="60" width="30" height="60" as="geometry" />
        </mxCell>
        <mxCell id="TdpDD-ACC1R9U4utzm28-25" value="" style="rounded=0;whiteSpace=wrap;html=1;" vertex="1" parent="1">
          <mxGeometry x="320" y="60" width="30" height="60" as="geometry" />
        </mxCell>
        <mxCell id="TdpDD-ACC1R9U4utzm28-26" value="" style="rounded=0;whiteSpace=wrap;html=1;fillColor=#FFFFFF;" vertex="1" parent="1">
          <mxGeometry x="350" y="60" width="30" height="60" as="geometry" />
        </mxCell>
      </root>
    </mxGraphModel>
  </diagram>
  <diagram id="5QuEy6YsRpWRGaqQUq8m" name="并发标记2结束">
    <mxGraphModel dx="1050" dy="621" grid="1" gridSize="10" guides="1" tooltips="1" connect="1" arrows="1" fold="1" page="1" pageScale="1" pageWidth="827" pageHeight="1169" math="0" shadow="0">
      <root>
        <mxCell id="0" />
        <mxCell id="1" parent="0" />
        <mxCell id="sJYJVkMds6ajJN637DUH-1" value="" style="rounded=0;whiteSpace=wrap;html=1;fillColor=#CCCCCC;fontColor=#333333;strokeColor=#666666;" vertex="1" parent="1">
          <mxGeometry x="140" y="370" width="120" height="60" as="geometry" />
        </mxCell>
        <mxCell id="sJYJVkMds6ajJN637DUH-2" value="" style="rounded=0;whiteSpace=wrap;html=1;" vertex="1" parent="1">
          <mxGeometry x="260" y="370" width="270" height="60" as="geometry" />
        </mxCell>
        <mxCell id="sJYJVkMds6ajJN637DUH-3" value="Region" style="text;html=1;strokeColor=none;fillColor=none;align=center;verticalAlign=middle;whiteSpace=wrap;rounded=0;" vertex="1" parent="1">
          <mxGeometry x="70" y="385" width="60" height="30" as="geometry" />
        </mxCell>
        <mxCell id="sJYJVkMds6ajJN637DUH-4" value="" style="endArrow=classic;html=1;rounded=0;" edge="1" parent="1">
          <mxGeometry width="50" height="50" relative="1" as="geometry">
            <mxPoint x="140" y="500" as="sourcePoint" />
            <mxPoint x="140" y="450" as="targetPoint" />
          </mxGeometry>
        </mxCell>
        <mxCell id="sJYJVkMds6ajJN637DUH-5" value="bottom" style="text;html=1;strokeColor=none;fillColor=none;align=center;verticalAlign=middle;whiteSpace=wrap;rounded=0;" vertex="1" parent="1">
          <mxGeometry x="110" y="500" width="60" height="30" as="geometry" />
        </mxCell>
        <mxCell id="sJYJVkMds6ajJN637DUH-6" value="" style="endArrow=classic;html=1;rounded=0;" edge="1" parent="1">
          <mxGeometry width="50" height="50" relative="1" as="geometry">
            <mxPoint x="460" y="500" as="sourcePoint" />
            <mxPoint x="460" y="450" as="targetPoint" />
          </mxGeometry>
        </mxCell>
        <mxCell id="sJYJVkMds6ajJN637DUH-7" value="top" style="text;html=1;strokeColor=none;fillColor=none;align=center;verticalAlign=middle;whiteSpace=wrap;rounded=0;" vertex="1" parent="1">
          <mxGeometry x="430" y="500" width="60" height="30" as="geometry" />
        </mxCell>
        <mxCell id="sJYJVkMds6ajJN637DUH-8" value="" style="endArrow=classic;html=1;rounded=0;" edge="1" parent="1">
          <mxGeometry width="50" height="50" relative="1" as="geometry">
            <mxPoint x="260" y="310" as="sourcePoint" />
            <mxPoint x="260" y="360" as="targetPoint" />
          </mxGeometry>
        </mxCell>
        <mxCell id="sJYJVkMds6ajJN637DUH-9" value="prev" style="text;html=1;strokeColor=none;fillColor=none;align=center;verticalAlign=middle;whiteSpace=wrap;rounded=0;" vertex="1" parent="1">
          <mxGeometry x="230" y="280" width="60" height="30" as="geometry" />
        </mxCell>
        <mxCell id="sJYJVkMds6ajJN637DUH-10" value="" style="endArrow=classic;html=1;rounded=0;" edge="1" parent="1">
          <mxGeometry width="50" height="50" relative="1" as="geometry">
            <mxPoint x="380" y="310" as="sourcePoint" />
            <mxPoint x="380" y="360" as="targetPoint" />
          </mxGeometry>
        </mxCell>
        <mxCell id="sJYJVkMds6ajJN637DUH-11" value="next" style="text;html=1;strokeColor=none;fillColor=none;align=center;verticalAlign=middle;whiteSpace=wrap;rounded=0;" vertex="1" parent="1">
          <mxGeometry x="350" y="280" width="60" height="30" as="geometry" />
        </mxCell>
        <mxCell id="sJYJVkMds6ajJN637DUH-12" value="" style="rounded=0;whiteSpace=wrap;html=1;" vertex="1" parent="1">
          <mxGeometry x="140" y="160" width="30" height="60" as="geometry" />
        </mxCell>
        <mxCell id="sJYJVkMds6ajJN637DUH-13" value="PrevBitMap" style="text;html=1;strokeColor=none;fillColor=none;align=center;verticalAlign=middle;whiteSpace=wrap;rounded=0;" vertex="1" parent="1">
          <mxGeometry x="60" y="175" width="80" height="30" as="geometry" />
        </mxCell>
        <mxCell id="sJYJVkMds6ajJN637DUH-14" value="" style="rounded=0;whiteSpace=wrap;html=1;fillColor=#000000;" vertex="1" parent="1">
          <mxGeometry x="170" y="160" width="30" height="60" as="geometry" />
        </mxCell>
        <mxCell id="sJYJVkMds6ajJN637DUH-15" value="" style="rounded=0;whiteSpace=wrap;html=1;" vertex="1" parent="1">
          <mxGeometry x="200" y="160" width="30" height="60" as="geometry" />
        </mxCell>
        <mxCell id="sJYJVkMds6ajJN637DUH-16" value="" style="rounded=0;whiteSpace=wrap;html=1;fillColor=#000000;" vertex="1" parent="1">
          <mxGeometry x="230" y="160" width="30" height="60" as="geometry" />
        </mxCell>
        <mxCell id="sJYJVkMds6ajJN637DUH-17" value="" style="rounded=0;whiteSpace=wrap;html=1;fillColor=#CCCCCC;fontColor=#333333;strokeColor=#666666;" vertex="1" parent="1">
          <mxGeometry x="260" y="370" width="120" height="60" as="geometry" />
        </mxCell>
        <mxCell id="sJYJVkMds6ajJN637DUH-18" value="" style="rounded=0;whiteSpace=wrap;html=1;" vertex="1" parent="1">
          <mxGeometry x="140" y="60" width="30" height="60" as="geometry" />
        </mxCell>
        <mxCell id="sJYJVkMds6ajJN637DUH-19" value="NextBitMap" style="text;html=1;strokeColor=none;fillColor=none;align=center;verticalAlign=middle;whiteSpace=wrap;rounded=0;" vertex="1" parent="1">
          <mxGeometry x="60" y="75" width="80" height="30" as="geometry" />
        </mxCell>
        <mxCell id="sJYJVkMds6ajJN637DUH-20" value="" style="rounded=0;whiteSpace=wrap;html=1;fillColor=#000000;" vertex="1" parent="1">
          <mxGeometry x="170" y="60" width="30" height="60" as="geometry" />
        </mxCell>
        <mxCell id="sJYJVkMds6ajJN637DUH-21" value="" style="rounded=0;whiteSpace=wrap;html=1;" vertex="1" parent="1">
          <mxGeometry x="200" y="60" width="30" height="60" as="geometry" />
        </mxCell>
        <mxCell id="sJYJVkMds6ajJN637DUH-22" value="" style="rounded=0;whiteSpace=wrap;html=1;fillColor=#FFFFFF;" vertex="1" parent="1">
          <mxGeometry x="230" y="60" width="30" height="60" as="geometry" />
        </mxCell>
        <mxCell id="sJYJVkMds6ajJN637DUH-23" value="" style="rounded=0;whiteSpace=wrap;html=1;" vertex="1" parent="1">
          <mxGeometry x="260" y="60" width="30" height="60" as="geometry" />
        </mxCell>
        <mxCell id="sJYJVkMds6ajJN637DUH-24" value="" style="rounded=0;whiteSpace=wrap;html=1;fillColor=#000000;" vertex="1" parent="1">
          <mxGeometry x="290" y="60" width="30" height="60" as="geometry" />
        </mxCell>
        <mxCell id="sJYJVkMds6ajJN637DUH-25" value="" style="rounded=0;whiteSpace=wrap;html=1;fillColor=#000000;" vertex="1" parent="1">
          <mxGeometry x="320" y="60" width="30" height="60" as="geometry" />
        </mxCell>
        <mxCell id="sJYJVkMds6ajJN637DUH-26" value="" style="rounded=0;whiteSpace=wrap;html=1;fillColor=#FFFFFF;" vertex="1" parent="1">
          <mxGeometry x="350" y="60" width="30" height="60" as="geometry" />
        </mxCell>
        <mxCell id="sJYJVkMds6ajJN637DUH-27" value="" style="rounded=0;whiteSpace=wrap;html=1;fillColor=#CCCCCC;fontColor=#333333;strokeColor=#666666;" vertex="1" parent="1">
          <mxGeometry x="380" y="370" width="80" height="60" as="geometry" />
        </mxCell>
      </root>
    </mxGraphModel>
  </diagram>
</mxfile>
